# xmcd
#
# Track frame offsets:
# 150
# 24525
# 53746
# 83944
# 124301
# 171713
# 225313
# 251678
# 286249
#
# Disc length: 4088 seconds
#
#
# Revision: 0
# Processed by: cddbd v1.5.2PL0 Copyright (c) Steve Scherf et al.
# Submitted via: FreeRIP 2.96 
#
DISCID=790ff609
DTITLE=Maurice Leblanc - Die Gräfin von Cagliostro oder die Jugend des Arsène Lupin CD2v2
DYEAR=2008
DGENRE=Speech
TTITLE0=11 Die Gräfin von Cagliostro
TTITLE1=12 Die Gräfin von Cagliostro
TTITLE2=13 Die Gräfin von Cagliostro
TTITLE3=14 Die Gräfin von Cagliostro
TTITLE4=15 Die Gräfin von Cagliostro
TTITLE5=16 Die Gräfin von Cagliostro
TTITLE6=17 Die Gräfin von Cagliostro
TTITLE7=18 Die Gräfin von Cagliostro
TTITLE8=19 Die Gräfin von Cagliostro
EXTD=Hörspiel mit Rüdiger Vogler, Samuel Weiss, Hans Peter Hallwachs u.v.a.
EXTT0=
EXTT1=
EXTT2=
EXTT3=
EXTT4=
EXTT5=
EXTT6=
EXTT7=
EXTT8=
PLAYORDER=
